<svg width="260" height="260" viewBox="0 0 260 260" fill="none" xmlns="http://www.w3.org/2000/svg">
<rect width="260" height="260" rx="30" fill="black"/>
<path d="M71.6773 94.3C69.344 91.0333 66.2107 89.4 62.2773 89.4C60.6773 89.4 59.1107 89.8 57.5773 90.6C56.044 91.4 55.2773 92.7 55.2773 94.5C55.2773 95.9667 55.9107 97.0333 57.1773 97.7C58.444 98.3667 60.044 98.9333 61.9773 99.4C63.9107 99.8667 65.9773 100.367 68.1773 100.9C70.444 101.367 72.544 102.133 74.4773 103.2C76.4107 104.2 78.0107 105.6 79.2773 107.4C80.544 109.2 81.1773 111.667 81.1773 114.8C81.1773 117.667 80.544 120.1 79.2773 122.1C78.0773 124.033 76.4773 125.6 74.4773 126.8C72.544 128 70.344 128.867 67.8773 129.4C65.4107 129.933 62.944 130.2 60.4773 130.2C56.744 130.2 53.3107 129.667 50.1773 128.6C47.044 127.533 44.244 125.6 41.7773 122.8L49.7773 115.3C51.3107 117.033 52.944 118.467 54.6773 119.6C56.4773 120.667 58.644 121.2 61.1773 121.2C62.044 121.2 62.944 121.1 63.8773 120.9C64.8107 120.7 65.6773 120.367 66.4773 119.9C67.2773 119.433 67.9107 118.867 68.3773 118.2C68.9107 117.467 69.1773 116.633 69.1773 115.7C69.1773 114.033 68.544 112.8 67.2773 112C66.0107 111.2 64.4107 110.567 62.4773 110.1C60.544 109.567 58.444 109.1 56.1773 108.7C53.9773 108.233 51.9107 107.533 49.9773 106.6C48.044 105.6 46.444 104.233 45.1773 102.5C43.9107 100.767 43.2773 98.3667 43.2773 95.3C43.2773 92.6333 43.8107 90.3333 44.8773 88.4C46.0107 86.4 47.4773 84.7667 49.2773 83.5C51.0773 82.2333 53.144 81.3 55.4773 80.7C57.8107 80.1 60.1773 79.8 62.5773 79.8C65.7773 79.8 68.944 80.3667 72.0773 81.5C75.2107 82.5667 77.744 84.4333 79.6773 87.1L71.6773 94.3ZM84.9109 91.2V81H94.8109V67.1H106.811V81H120.011V91.2H106.811V112.2C106.811 114.6 107.244 116.5 108.111 117.9C109.044 119.3 110.844 120 113.511 120C114.578 120 115.744 119.9 117.011 119.7C118.278 119.433 119.278 119.033 120.011 118.5V128.6C118.744 129.2 117.178 129.6 115.311 129.8C113.511 130.067 111.911 130.2 110.511 130.2C107.311 130.2 104.678 129.833 102.611 129.1C100.611 128.433 99.0109 127.4 97.8109 126C96.6776 124.533 95.8776 122.733 95.4109 120.6C95.0109 118.467 94.8109 116 94.8109 113.2V91.2H84.9109ZM129.378 81H141.378V88.6H141.578C142.911 85.8 144.811 83.6333 147.278 82.1C149.745 80.5667 152.578 79.8 155.778 79.8C156.511 79.8 157.211 79.8667 157.878 80C158.611 80.1333 159.345 80.3 160.078 80.5V92.1C159.078 91.8333 158.078 91.6333 157.078 91.5C156.145 91.3 155.211 91.2 154.278 91.2C151.478 91.2 149.211 91.7333 147.478 92.8C145.811 93.8 144.511 94.9667 143.578 96.3C142.711 97.6333 142.111 98.9667 141.778 100.3C141.511 101.633 141.378 102.633 141.378 103.3V129H129.378V81ZM164.088 105C164.088 101.2 164.754 97.7667 166.088 94.7C167.488 91.5667 169.354 88.9 171.688 86.7C174.021 84.5 176.788 82.8 179.988 81.6C183.188 80.4 186.588 79.8 190.188 79.8C193.788 79.8 197.188 80.4 200.388 81.6C203.588 82.8 206.354 84.5 208.688 86.7C211.021 88.9 212.854 91.5667 214.188 94.7C215.588 97.7667 216.288 101.2 216.288 105C216.288 108.8 215.588 112.267 214.188 115.4C212.854 118.467 211.021 121.1 208.688 123.3C206.354 125.5 203.588 127.2 200.388 128.4C197.188 129.6 193.788 130.2 190.188 130.2C186.588 130.2 183.188 129.6 179.988 128.4C176.788 127.2 174.021 125.5 171.688 123.3C169.354 121.1 167.488 118.467 166.088 115.4C164.754 112.267 164.088 108.8 164.088 105ZM176.088 105C176.088 106.867 176.388 108.667 176.988 110.4C177.654 112.133 178.588 113.667 179.788 115C181.054 116.333 182.554 117.4 184.288 118.2C186.021 119 187.988 119.4 190.188 119.4C192.388 119.4 194.354 119 196.088 118.2C197.821 117.4 199.288 116.333 200.488 115C201.754 113.667 202.688 112.133 203.288 110.4C203.954 108.667 204.288 106.867 204.288 105C204.288 103.133 203.954 101.333 203.288 99.6C202.688 97.8667 201.754 96.3333 200.488 95C199.288 93.6667 197.821 92.6 196.088 91.8C194.354 91 192.388 90.6 190.188 90.6C187.988 90.6 186.021 91 184.288 91.8C182.554 92.6 181.054 93.6667 179.788 95C178.588 96.3333 177.654 97.8667 176.988 99.6C176.388 101.333 176.088 103.133 176.088 105Z" fill="white"/>
<path d="M41.76 187.1C41.76 185.607 42.2967 184.323 43.37 183.25C44.49 182.177 45.82 181.64 47.36 181.64C48.8533 181.64 50.16 182.153 51.28 183.18C52.4 184.207 52.96 185.467 52.96 186.96C52.96 188.453 52.4 189.737 51.28 190.81C50.2067 191.883 48.9 192.42 47.36 192.42C46.6133 192.42 45.89 192.28 45.19 192C44.5367 191.72 43.9533 191.347 43.44 190.88C42.9267 190.413 42.5067 189.853 42.18 189.2C41.9 188.547 41.76 187.847 41.76 187.1ZM85.4329 168.48C84.4529 167.453 83.4262 166.637 82.3529 166.03C81.2796 165.423 80.1829 165.12 79.0629 165.12C77.5229 165.12 76.1462 165.4 74.9329 165.96C73.7196 166.52 72.6696 167.267 71.7829 168.2C70.9429 169.133 70.2896 170.207 69.8229 171.42C69.4029 172.633 69.1929 173.893 69.1929 175.2C69.1929 176.507 69.4029 177.767 69.8229 178.98C70.2896 180.193 70.9429 181.267 71.7829 182.2C72.6696 183.133 73.7196 183.88 74.9329 184.44C76.1462 185 77.5229 185.28 79.0629 185.28C80.3696 185.28 81.5829 185.023 82.7029 184.51C83.8229 183.95 84.7796 183.157 85.5729 182.13L91.1729 188.15C90.3329 188.99 89.3529 189.713 88.2329 190.32C87.1596 190.927 86.0629 191.417 84.9429 191.79C83.8229 192.163 82.7496 192.42 81.7229 192.56C80.6962 192.747 79.8096 192.84 79.0629 192.84C76.5429 192.84 74.1629 192.42 71.9229 191.58C69.6829 190.74 67.7462 189.55 66.1129 188.01C64.4796 186.47 63.1729 184.627 62.1929 182.48C61.2596 180.287 60.7929 177.86 60.7929 175.2C60.7929 172.54 61.2596 170.137 62.1929 167.99C63.1729 165.797 64.4796 163.93 66.1129 162.39C67.7462 160.85 69.6829 159.66 71.9229 158.82C74.1629 157.98 76.5429 157.56 79.0629 157.56C81.2096 157.56 83.3562 157.98 85.5029 158.82C87.6962 159.613 89.6096 160.897 91.2429 162.67L85.4329 168.48ZM94.5624 175.2C94.5624 172.54 95.0291 170.137 95.9624 167.99C96.9424 165.797 98.2491 163.93 99.8824 162.39C101.516 160.85 103.452 159.66 105.692 158.82C107.932 157.98 110.312 157.56 112.832 157.56C115.352 157.56 117.732 157.98 119.972 158.82C122.212 159.66 124.149 160.85 125.782 162.39C127.416 163.93 128.699 165.797 129.632 167.99C130.612 170.137 131.102 172.54 131.102 175.2C131.102 177.86 130.612 180.287 129.632 182.48C128.699 184.627 127.416 186.47 125.782 188.01C124.149 189.55 122.212 190.74 119.972 191.58C117.732 192.42 115.352 192.84 112.832 192.84C110.312 192.84 107.932 192.42 105.692 191.58C103.452 190.74 101.516 189.55 99.8824 188.01C98.2491 186.47 96.9424 184.627 95.9624 182.48C95.0291 180.287 94.5624 177.86 94.5624 175.2ZM102.962 175.2C102.962 176.507 103.172 177.767 103.592 178.98C104.059 180.193 104.712 181.267 105.552 182.2C106.439 183.133 107.489 183.88 108.702 184.44C109.916 185 111.292 185.28 112.832 185.28C114.372 185.28 115.749 185 116.962 184.44C118.176 183.88 119.202 183.133 120.042 182.2C120.929 181.267 121.582 180.193 122.002 178.98C122.469 177.767 122.702 176.507 122.702 175.2C122.702 173.893 122.469 172.633 122.002 171.42C121.582 170.207 120.929 169.133 120.042 168.2C119.202 167.267 118.176 166.52 116.962 165.96C115.749 165.4 114.372 165.12 112.832 165.12C111.292 165.12 109.916 165.4 108.702 165.96C107.489 166.52 106.439 167.267 105.552 168.2C104.712 169.133 104.059 170.207 103.592 171.42C103.172 172.633 102.962 173.893 102.962 175.2Z" fill="white"/>
</svg>
